<?xml version="1.0" encoding="utf-8"?>
<!-- Generator: Adobe Illustrator 26.2.1, SVG Export Plug-In . SVG Version: 6.00 Build 0)  -->
<svg version="1.1" id="Layer_1" xmlns="http://www.w3.org/2000/svg" xmlns:xlink="http://www.w3.org/1999/xlink" x="0px" y="0px"
	 width="100px" height="100px" viewBox="0 0 100 100" style="enable-background:new 0 0 100 100;" xml:space="preserve">
<style type="text/css">
	.st0{fill:#520DC2;}
</style>
<g>
	<path class="st0" d="M5.8,32.4c3.2,0,5.8-2.6,5.8-5.8V11.6h14.9c3.2,0,5.8-2.6,5.8-5.8S29.7,0,26.5,0L5.8,0C2.6,0,0,2.6,0,5.8v20.8
		C0,29.8,2.6,32.4,5.8,32.4L5.8,32.4z"/>
	<path class="st0" d="M26.6,88.5H11.6V73.5c0-3.2-2.6-5.8-5.8-5.8S0,70.3,0,73.5v20.7c0,3.2,2.6,5.8,5.8,5.8h20.7
		c3.2,0,5.8-2.6,5.8-5.8C32.4,91.1,29.8,88.5,26.6,88.5L26.6,88.5z"/>
	<path class="st0" d="M94.2,67.7c-3.2,0-5.8,2.6-5.8,5.8v14.9H73.4c-3.2,0-5.8,2.6-5.8,5.8c0,3.2,2.6,5.8,5.8,5.8h20.8
		c3.2,0,5.8-2.6,5.8-5.8V73.5C100,70.3,97.4,67.7,94.2,67.7L94.2,67.7z"/>
	<path class="st0" d="M94.2,0H73.4c-3.2,0-5.8,2.6-5.8,5.8s2.6,5.8,5.8,5.8h14.9v15.1c0,3.2,2.6,5.8,5.8,5.8c3.2,0,5.8-2.6,5.8-5.8
		V5.8C100,2.6,97.4,0,94.2,0L94.2,0z"/>
	<path class="st0" d="M75.7,50.1c0-14.1-11.5-25.7-25.7-25.7S24.3,35.8,24.3,50.1S35.9,75.7,50,75.7S75.7,64.3,75.7,50.1z M50,64.2
		c-7.8,0-14.1-6.3-14.1-14.1c0-7.8,6.3-14.1,14.1-14.1c7.8,0,14.1,6.3,14.1,14.1C64.1,57.8,57.8,64.2,50,64.2z"/>
</g>
</svg>
